<svg xmlns="http://www.w3.org/2000/svg" width="48" height="48" viewBox="0 0 48 48" fill="none">
  <!-- Shield outline -->
  <path d="M24 4L6 12v12c0 11.1 7.7 21.5 18 24 10.3-2.5 18-12.9 18-24V12L24 4z" fill="#0B0B0B" stroke="#47bfff" stroke-width="2"/>
  <!-- Inner shield glow -->
  <path d="M24 8L10 14.5v9.5c0 9.2 6.4 17.8 14 19.8 7.6-2 14-10.6 14-19.8v-9.5L24 8z" fill="#0B0B0B" stroke="#47bfff" stroke-width="0.5" opacity="0.3"/>
  <!-- Radar circle outer -->
  <circle cx="24" cy="22" r="10" fill="none" stroke="#47bfff" stroke-width="1.5" opacity="0.6"/>
  <!-- Radar circle inner -->
  <circle cx="24" cy="22" r="5" fill="none" stroke="#47bfff" stroke-width="1" opacity="0.4"/>
  <!-- Center dot (threat detected) -->
  <circle cx="24" cy="22" r="2.5" fill="#ff4444"/>
  <!-- Radar sweep line -->
  <line x1="24" y1="22" x2="32" y2="15" stroke="#47bfff" stroke-width="1.5" stroke-linecap="round" opacity="0.8"/>
  <!-- Crosshair lines -->
  <line x1="24" y1="12" x2="24" y2="17" stroke="#47bfff" stroke-width="0.8" opacity="0.4"/>
  <line x1="24" y1="27" x2="24" y2="32" stroke="#47bfff" stroke-width="0.8" opacity="0.4"/>
  <line x1="14" y1="22" x2="19" y2="22" stroke="#47bfff" stroke-width="0.8" opacity="0.4"/>
  <line x1="29" y1="22" x2="34" y2="22" stroke="#47bfff" stroke-width="0.8" opacity="0.4"/>
</svg>
